<?xml version="1.0" encoding="UTF-8" standalone="no"?>
<svg
   version="1.0"
   width="690.000000pt"
   height="493.000000pt"
   viewBox="0 0 690.000000 493.000000"
   preserveAspectRatio="xMidYMid meet"
   id="svg36"
   sodipodi:docname="HC.svg"
   inkscape:version="1.1.2 (b8e25be833, 2022-02-05)"
   xmlns:inkscape="http://www.inkscape.org/namespaces/inkscape"
   xmlns:sodipodi="http://sodipodi.sourceforge.net/DTD/sodipodi-0.dtd"
   xmlns="http://www.w3.org/2000/svg"
   xmlns:svg="http://www.w3.org/2000/svg">
  <defs
     id="defs40" />
  <sodipodi:namedview
     id="namedview38"
     pagecolor="#ffffff"
     bordercolor="#111111"
     borderopacity="1"
     inkscape:pageshadow="0"
     inkscape:pageopacity="0"
     inkscape:pagecheckerboard="1"
     inkscape:document-units="pt"
     showgrid="false"
     inkscape:zoom="0.70710678"
     inkscape:cx="292.0351"
     inkscape:cy="301.22749"
     inkscape:window-width="1920"
     inkscape:window-height="1017"
     inkscape:window-x="-8"
     inkscape:window-y="-8"
     inkscape:window-maximized="1"
     inkscape:current-layer="g34" />
  <g
     transform="translate(0.000000,493.000000) scale(0.100000,-0.100000)"
     fill="#000000"
     stroke="none"
     id="g34">
    <path
       d="m 4780,4909 c -198,-24 -319,-46 -398,-72 -55,-18 -69,-19 -115,-8 -31,7 -77,9 -110,5 -43,-5 -77,-1 -146,17 -80,21 -96,22 -136,11 -25,-7 -94,-12 -153,-12 h -108 l -55,-41 c -30,-22 -89,-58 -131,-80 -42,-21 -93,-53 -113,-71 -42,-36 -125,-156 -149,-213 -9,-21 -48,-71 -86,-111 -38,-41 -72,-85 -76,-98 -3,-13 -1,-48 5,-78 6,-29 13,-92 15,-140 7,-133 29,-161 162,-212 40,-15 80,-36 89,-46 17,-19 17,-21 -10,-55 -15,-20 -81,-90 -147,-155 -102,-103 -116,-120 -95,-120 39,0 56,-10 73,-42 42,-81 -53,-154 -122,-95 -35,31 -37,77 -3,114 13,15 -3,3 -36,-25 -106,-92 -218,-171 -305,-216 -104,-55 -208,-147 -466,-416 -103,-107 -254.9579,-261.1899 -293.9579,-302.1899 -53,-55 18.0985,-12.8882 139.9579,112.1899 208,181 412,353 495,414 65,49 125,69 177,59 44,-8 108,-40 114,-58 3,-8 -13,-37 -38,-66 -84,-100 -292,-259 -547,-418 -124,-78 -416,-231 -440,-231 -34,0 54.028,116.3055 100.028,176.3055 C 1886.8873,2471.0595 1772,2354 1683,2265 c -172,-173 -216,-238 -295,-430 -29,-71 -74,-170 -101,-220 -121,-228 -136,-279 -99,-325 19,-23 26,-25 110,-25 81,0 93,3 132,29 24,16 83,66 131,113 79,76 99,89 208,139 136,61 215,84 233,66 8,-8 6,-17 -8,-35 C 1804,1335 1731,1193 1656,919 1605,730 1592.4151,632.73681 1640.3438,784.84375 1714.3438,1004.8438 1871,1391 1920,1460 l 21,29 73,-75 c 40,-40 81,-74 90,-74 33,0 15,-41 -50,-115 -74,-85 -88,-118 -128,-301 -47,-209 -46,-208 -132,-251 -49,-23 -94,-38 -129,-41 l -54,-4 c 7.276,30.2693 -2.7859,68.18226 7.5839,94.0396 -4.5863,45.07596 -12.1257,-13.96825 -16.9154,-62.38232 -2.9121,-15.63278 -0.8748,-33.23186 -2.9943,-49.65728 H 1654 c 30,0 83,9 118,20 75,23 96,24 165,6 49,-13 53,-13 71,8 26,27 63,90 184,316 55,102 120,217 144,257 42,67 49,74 132,116 102,53 270,127 288,127 7,0 17,-12 22,-27 6,-16 11,-22 11,-14 1,7 -9,30 -20,51 -28,49 -21,78 33,136 29,32 48,44 69,44 15,0 31,-4 34,-10 3,-5 14,-14 24,-20 15,-7 30,0 76,35 31,25 74,50 94,56 34,10 45,8 122,-26 103,-45 171,-55 199,-30 11,10 20,23 20,30 0,7 8,19 18,27 24,20 187,88 228,95 38,6 68,-12 59,-35 -8,-22 -282,-404 -369,-515 -42,-54 -203.8172,-230.8586 -204.9365,-233.5938 C 3148.3732,967.9567 3312,1158 3326,1169 c 15,12 33,21 40,21 23,0 51,-57 99,-200 l 44,-135 2,-260 c 1,-180 -2,-267 -10,-282 -20,-39 -12,-36 34,12 52,53 97,75 155,75 68,0 124,-40 154,-110 l 15,-35 1,51 c 0,45 3,52 25,62 14,7 47,12 74,12 73,0 128,-40 173,-126 54,-102 81,-190 67,-215 -16,-31 -6,-32 36,-3 41,27 155,54 231,54 25,0 64,-9 87,-20 l 42,-21 -39,35 c -50,45 -88,52 -177,32 -98,-22 -134,-21 -159,6 -29,31 -82,147 -84,181 -1,29 10,37 109,68 45,14 118,11 142,-6 11,-8 44,-44 73,-79 45,-55 156.0588,-167.7874 173.1175,-159.42078 17.648,8.65564 -36.8764,57.33595 -50.1175,71.42078 -49,76 -101,137 -155,177 -69,52 -89,54 -233,29 -58,-10 -111,-13 -150,-9 -79,8 -197,35 -212,47 -25,20 -16,266 16,465 l 29,178 95,193 c 60,120 115,218 149,260 97,123 261,306 363,407 154,151 426,454 568,631 51,64 72,107 186,380 124,297 131,311 176,349 82,69 138,130 188,201 l 47,69 v 127 c 0,133 13,194 62,292 18,35 19,48 10,149 -10,106 -13,115 -67,222 -86,169 -165,267 -330,409 -74,63 -155,105 -251,129 -99,25 -133,26 -294,6 z m 344,-55 c 28,-28 18,-41 -46,-59 -52,-14 -72,-27 -115,-71 -47,-50 -55,-54 -96,-54 -77,0 -90,50 -25,102 45,37 192,98 235,98 17,0 39,-7 47,-16 z m -421,-94 c 34,-58 15,-121 -48,-160 -46,-29 -89,-27 -103,5 -19,41 -14,70 18,110 17,21 30,42 30,46 0,5 9,18 20,29 16,16 24,18 43,9 13,-6 31,-23 40,-39 z m -1010,26 c 18,-8 54,-36 81,-64 l 49,-51 -34,-20 c -66,-40 -122,-19 -164,62 -16,31 -26,61 -22,70 8,21 46,22 90,3 z m 269,-37 c 38,-20 58,-45 58,-75 0,-15 -8,-16 -72,-10 -66,6 -76,10 -100,38 -69,80 -3,106 114,47 z m 185,-27 c 34,-58 51,-128 35,-144 -12,-12 -92,39 -117,74 -17,26 -20,80 -4,109 18,34 51,19 86,-39 z m 311,45 c 24,-29 33,-107 22,-195 -22,-176 -39,-214 -78,-179 -15,14 -17,37 -16,189 1,95 2,179 3,186 1,16 56,16 69,-1 z m 766,-10 c 80,-25 70,-71 -20,-88 -51,-10 -67,-23 -58,-51 3,-11 0,-18 -8,-18 -23,0 -112,46 -131,68 -18,20 -18,21 15,46 71,54 126,66 202,43 z m -902,-58 c 25,-33 39,-167 22,-208 -22,-53 -47,-48 -98,23 -26,35 -28,41 -17,76 6,20 11,53 11,73 0,19 3,43 6,52 10,24 53,15 76,-16 z m -723,-30 c 37,-13 51,-35 51,-83 0,-41 -33,-72 -88,-82 -33,-6 -38,-4 -71,35 -20,22 -57,54 -83,71 -53,33 -59,46 -25,60 32,13 178,12 216,-1 z m 455,-54 c 101,-48 232,-196 266,-300 48,-147 -42,-367 -184,-450 -96,-55 -202,-54 -368,4 -268,95 -375,277 -283,479 45,98 193,228 320,281 71,30 169,24 249,-14 z m 1388,8 c 25,-22 43,-58 52,-100 10,-44 -15,-49 -116,-22 -67,18 -89,29 -115,58 -18,19 -33,38 -33,42 0,7 64,33 105,43 34,8 87,-2 107,-21 z m -439,1 c 103,-24 169,-56 228,-111 86,-81 114,-163 114,-338 -1,-92 -4,-118 -23,-159 -35,-78 -70,-116 -130,-144 -51,-23 -62,-24 -166,-19 -235,12 -433,109 -508,248 -19,37 -23,59 -23,139 0,85 3,101 29,155 63,129 228,244 349,245 32,0 90,-7 130,-16 z m -1537,-89 c 28,-19 48,-69 40,-100 -5,-18 -20,-32 -49,-45 -56,-26 -75,-25 -122,7 -30,20 -51,27 -82,25 -33,-1 -45,3 -57,19 -8,12 -12,27 -9,34 8,21 79,45 136,45 28,1 66,7 82,15 39,17 37,17 61,0 z m 1985,-71 c 63,-18 93,-43 121,-99 12,-22 38,-60 59,-84 42,-47 46,-60 27,-79 -24,-24 -66,-14 -100,25 -73,81 -117,121 -144,127 -41,11 -54,24 -54,58 0,31 15,68 29,68 4,0 32,-7 62,-16 z M 3370,4342 c 35,-18 47,-41 49,-99 1,-25 -7,-38 -36,-63 -21,-17 -51,-35 -68,-39 -27,-8 -25,-9 20,-10 89,-2 121,-50 72,-106 -25,-30 -78,-44 -165,-45 -32,0 -66,-8 -89,-20 -47,-25 -55,-25 -78,0 -23,26 -8,45 47,62 26,8 53,27 76,55 25,29 44,43 62,43 36,1 -33,25 -129,45 -78,16 -111,36 -111,66 0,23 26,37 91,49 28,6 77,26 107,45 63,39 100,44 152,17 z m 1104,-183 c 11,-62 28,-113 46,-146 43,-76 122,-156 187,-191 69,-36 194,-62 303,-62 70,0 86,4 146,35 83,43 111,44 149,5 l 28,-30 -35,-15 c -20,-8 -55,-17 -77,-21 -23,-4 -40,-9 -39,-13 30,-58 31,-61 18,-86 -20,-38 -68,-49 -137,-32 -39,9 -91,13 -160,9 -84,-3 -114,-1 -171,17 -82,24 -171,81 -234,149 l -45,48 -44,-34 c -62,-49 -230,-127 -316,-147 -97,-23 -272,-17 -356,13 -53,19 -60,20 -93,6 -53,-22 -88,-15 -92,18 -2,15 2,36 8,47 9,17 3,16 -39,-10 -128,-80 -200,-24 -93,73 37,33 39,38 24,51 -30,26 -57,28 -117,7 -97,-34 -125,-7 -55,53 47,40 109,61 153,52 18,-4 61,-29 96,-56 111,-85 251,-138 367,-139 55,0 180,33 251,66 71,34 152,113 187,182 28,55 56,158 56,207 0,17 7,41 16,54 16,22 17,22 34,4 10,-10 24,-58 34,-114 z m 1052,23 c 61,-75 85,-113 93,-149 13,-53 2,-103 -21,-103 -7,0 -56,46 -108,102 l -95,102 1,50 c 2,61 19,109 37,104 6,-2 49,-50 93,-106 z m -68,-172 c 51,-36 67,-67 93,-173 11,-45 32,-117 46,-159 26,-78 26,-108 -2,-108 -22,0 -81,86 -106,155 -28,79 -62,140 -104,193 -42,52 -44,74 -9,101 34,27 33,27 82,-9 z m -101,-114 c 34,-29 122,-184 157,-277 20,-54 23,-73 15,-100 -23,-85 -48,-77 -73,22 -10,41 -34,103 -52,139 -80,156 -109,240 -85,240 5,0 22,-11 38,-24 z m -897,-126 c 0,-5 36,-37 81,-71 44,-33 83,-67 85,-74 3,-7 -18,-59 -47,-116 -88,-177 -136,-232 -179,-209 -42,22 -99,82 -109,113 -6,18 -18,77 -26,132 l -15,100 41,37 c 82,74 169,120 169,88 z m 865,-72 c 50,-61 108,-163 107,-188 -2,-57 -15,-141 -23,-146 -17,-10 -49,8 -64,36 -9,17 -15,56 -15,94 0,60 -3,67 -45,124 -25,33 -45,63 -45,68 0,13 32,44 46,44 6,0 24,-15 39,-32 z M 3332,3563 c 23,-20 32,-67 18,-92 -6,-12 -22,-28 -35,-37 -21,-14 -30,-14 -55,-4 -35,15 -50,37 -50,75 0,72 68,105 122,58 z m 202,-94 c 14,-17 26,-41 26,-54 0,-13 -12,-37 -26,-54 -20,-25 -34,-31 -64,-31 -30,0 -44,6 -64,31 -14,17 -26,41 -26,54 0,13 12,37 26,54 20,25 34,31 64,31 30,0 44,-6 64,-31 z m 230,16 c 35,-17 66,-61 66,-95 0,-53 -57,-110 -110,-110 -60,0 -118,71 -105,129 3,16 18,40 33,53 44,41 68,46 116,23 z m 308,-57 c 82,-58 75,-188 -14,-234 -69,-36 -137,-16 -185,56 -29,41 -29,82 -1,131 42,75 132,96 200,47 z m 842,6 c 44,-45 32,-110 -25,-139 -56,-29 -119,12 -119,77 0,80 88,118 144,62 z m 247,-17 c 44,-34 47,-89 7,-127 -47,-43 -131,-6 -131,58 0,63 77,105 124,69 z m -1865,-61 c 58,-58 42,-141 -33,-173 -69,-28 -143,23 -143,99 0,55 51,108 105,108 29,0 45,-8 71,-34 z m 1363,9 c 40,-20 57,-66 41,-105 -27,-65 -92,-79 -141,-31 -45,45 -37,105 19,135 34,19 46,19 81,1 z m -1156,-86 c 36,-19 57,-52 57,-92 0,-101 -139,-136 -185,-47 -24,46 -19,78 19,116 36,36 70,43 109,23 z m 857,-34 c 57,-29 68,-99 24,-140 -77,-71 -188,28 -128,113 14,21 45,40 67,41 4,1 21,-6 37,-14 z m -577,-45 c 50,-56 27,-135 -48,-160 -87,-29 -161,81 -104,154 43,54 105,57 152,6 z m -926,8 c 14,-13 23,-33 23,-50 0,-36 -40,-78 -75,-78 -14,0 -37,11 -50,25 -14,13 -25,36 -25,50 0,34 42,75 76,75 15,0 38,-10 51,-22 z m 2270,-35 c 54,-36 73,-116 39,-168 -23,-35 -74,-65 -111,-65 -71,0 -132,71 -122,143 12,92 117,140 194,90 z m -314,-34 c 37,-40 36,-82 -2,-120 -22,-21 -39,-29 -66,-29 -27,0 -44,8 -66,29 -35,36 -38,77 -8,115 42,54 95,56 142,5 z m -1776,1 c 83,-50 43,-180 -56,-180 -94,1 -133,113 -60,174 36,31 73,33 116,6 z m 986,-20 c 48,-54 30,-127 -39,-156 -90,-38 -173,74 -113,150 43,54 105,57 152,6 z m 526,-16 c 42,-35 43,-84 2,-125 -36,-36 -70,-37 -110,-3 -25,20 -31,34 -31,64 0,30 6,44 31,64 17,14 41,26 54,26 13,0 37,-12 54,-26 z m -1289,-21 c 37,-21 54,-55 53,-101 -1,-48 -57,-102 -106,-102 -81,0 -136,83 -101,155 28,61 97,82 154,48 z m 318,-43 c 48,-29 67,-80 50,-133 -25,-79 -111,-110 -179,-64 -48,32 -67,89 -46,139 18,43 68,78 112,78 17,0 45,-9 63,-20 z m 245,-61 c 38,-19 57,-51 57,-97 0,-62 -40,-102 -103,-102 -39,0 -49,5 -76,35 -44,50 -43,95 3,141 36,36 77,44 119,23 z m 1158,-48 c 20,-20 29,-39 29,-61 0,-39 -47,-90 -83,-90 -30,0 -75,34 -87,66 -20,51 28,113 88,114 13,0 37,-13 53,-29 z m -300,-20 c 46,-46 37,-106 -21,-136 -71,-37 -152,43 -116,114 31,59 90,68 137,22 z m -331,-26 c 59,-31 68,-98 19,-139 -51,-43 -110,-31 -135,29 -20,48 4,99 56,118 24,9 29,8 60,-8 z m -1408,-5 c 39,-11 98,-70 98,-98 -1,-10 -77,-74 -198,-163 -409,-304 -577,-395 -843,-459 -121,-29 -164,-27 -200,9 -31,32 -36,53 -16,69 6,5 71,33 142,62 72,29 173,74 225,100 166,83 421,260 540,375 84,81 108,96 165,106 22,3 42,7 45,8 3,0 22,-4 42,-9 z m 357,-125 c 52,-26 48,-40 -48,-144 -236,-256 -503,-448 -717,-514 -96,-30 -328,-77 -382,-77 -21,0 -46,6 -56,13 -39,29 -15,49 159,137 208,104 261,138 540,350 251,190 298,223 340,238 44,15 132,14 164,-3 z m 829,-9 c 75,-39 103,-124 63,-189 -24,-39 -74,-67 -119,-67 -40,0 -93,38 -115,82 -52,105 68,227 171,174 z m -451,-56 c 41,-15 47,-33 26,-78 -45,-94 -189,-239 -313,-312 -172,-103 -640,-255 -904,-295 -60,-8 -111,-13 -114,-11 -13,13 27,38 92,57 282,82 441,186 866,567 l 105,94 105,-5 c 58,-3 119,-11 137,-17 z m 814,4 c 36,-18 59,-67 52,-107 -8,-40 -57,-77 -102,-77 -78,0 -127,104 -76,160 37,41 79,49 126,24 z m 315,-25 c 66,-62 22,-168 -69,-169 -99,0 -136,136 -49,185 35,20 88,12 118,-16 z m -872,-135 c 44,-44 32,-110 -24,-139 -37,-19 -74,-11 -100,22 -68,87 46,194 124,117 z m 375,-48 c 59,-31 67,-102 17,-152 -45,-45 -91,-46 -135,-5 -25,24 -31,37 -31,71 0,79 76,123 149,86 z m 276,-91 c 32,-31 32,-66 -1,-99 -33,-33 -68,-33 -99,-1 -31,30 -32,71 -3,102 29,31 72,30 103,-2 z m -870,-15 c 57,-54 57,-128 -1,-179 -100,-88 -246,33 -178,148 37,63 128,79 179,31 z m 320,-46 c 72,-34 84,-128 24,-178 -54,-46 -132,-27 -163,39 -27,57 0,118 64,144 34,13 37,13 75,-5 z m 324,-89 c 40,-20 57,-66 41,-105 -27,-65 -92,-79 -141,-31 -45,45 -37,105 19,135 34,19 46,19 81,1 z m -2597,-57 c 18,-23 48,-57 67,-75 28,-29 32,-38 24,-56 -15,-31 -257,-290 -399,-427 -116,-111 -167,-150 -180,-137 -10,10 258,512 329,617 44,63 97,120 113,120 7,0 28,-19 46,-42 z m 1751,-8 c 41,-45 38,-101 -7,-146 -28,-28 -42,-34 -76,-34 -81,0 -135,70 -110,145 28,85 130,104 193,35 z m 367,-19 c 36,-36 46,-73 30,-112 -41,-98 -186,-87 -206,15 -18,100 106,168 176,97 z m 311,-59 c 24,-16 52,-38 62,-49 17,-19 15,-21 -45,-79 -92,-87 -128,-112 -213,-145 -95,-36 -121,-36 -157,-2 -40,38 -36,65 15,104 23,18 76,63 117,100 129,113 146,119 221,71 z m -2186,-4 c 28,-13 55,-55 55,-85 0,-11 -36,-45 -92,-88 -151,-114 -378,-307 -454,-386 -39,-41 -91,-106 -116,-144 -70,-109 -118,-142 -169,-115 -24,14 -25,66 -1,100 33,49 720,730 735,730 9,0 28,-5 42,-12 z m 149,-99 c 49,-23 42,-39 -46,-123 -116,-110 -311,-272 -380,-317 -66,-42 -146,-72 -180,-67 -47,7 -31,35 69,116 54,44 174,144 267,222 156,131 220,180 238,180 4,0 18,-5 32,-11 z m 816,-28 c 5,-11 10,-33 10,-50 0,-63 -19,-83 -176,-180 -28,-17 -59,-40 -69,-51 -18,-20 -18,-21 11,-51 l 29,-30 -33,-30 c -42,-37 -61,-37 -99,4 -46,49 -63,79 -63,110 0,37 10,55 87,159 80,107 130,135 240,137 42,1 54,-3 63,-18 z m 273,8 c 43,-12 67,-52 67,-113 0,-57 -32,-84 -115,-96 -38,-5 -85,-12 -102,-15 -18,-3 -53,-24 -79,-45 -52,-46 -96,-53 -114,-20 -14,26 -4,42 60,105 29,28 71,75 95,106 64,81 109,100 188,78 z m 409,-16 c 60,-54 -29,-154 -181,-202 -66,-21 -70,-24 -73,-54 -2,-26 -8,-33 -30,-35 -15,-2 -36,2 -48,8 -35,19 -25,58 36,140 31,41 63,88 72,103 30,49 183,77 224,40 z m -1275,-75 c 33,-30 31,-80 -3,-107 -30,-24 -43,-26 -78,-10 -37,17 -51,60 -32,97 25,47 74,56 113,20 z m 1881,-10 c 19,-19 14,-49 -22,-125 -39,-80 -99,-153 -127,-153 -36,0 -71,109 -48,151 7,13 37,50 67,82 44,46 61,57 87,57 17,0 36,-5 43,-12 z m -1731,-70 c 31,-29 30,-72 -2,-103 -27,-28 -46,-31 -78,-13 -50,26 -60,69 -26,112 26,33 73,35 106,4 z m 1518,-53 c -27,-88 -14,-145 37,-166 25,-10 27,-14 16,-29 -87,-119 -299,-449 -307,-477 -6,-21 -11,-68 -11,-105 0,-81 -12,-118 -39,-118 -24,0 -57,41 -67,83 l -6,31 -19,-36 c -21,-40 -54,-68 -80,-68 -33,0 -77,70 -113,179 -60,183 -76,137 153,445 l 200,269 63,3 c 35,1 90,11 123,22 33,10 61,18 62,17 1,0 -4,-23 -12,-50 z m -1722,-6 c 25,-11 47,-47 47,-75 0,-25 -47,-64 -76,-64 -68,0 -100,88 -48,129 30,24 43,26 77,10 z m -193,-24 c 80,-41 23,-172 -57,-133 -15,7 -34,25 -43,41 -13,24 -13,30 0,54 9,15 27,33 40,40 31,16 25,16 60,-2 z m 401,-98 c 45,-30 58,-76 35,-123 -31,-66 -110,-77 -161,-24 -45,47 -32,124 27,157 34,18 61,16 99,-10 z m -267,-48 c 65,-52 -1,-148 -75,-108 -28,15 -42,55 -27,82 26,50 61,58 102,26 z m -145,-35 c 12,-15 21,-35 21,-46 0,-25 -44,-68 -70,-68 -28,0 -70,43 -70,71 0,13 10,33 22,46 29,31 71,30 97,-3 z m 236,-79 c 14,-13 25,-29 25,-35 0,-6 -11,-22 -25,-35 -13,-14 -29,-25 -35,-25 -6,0 -22,11 -35,25 -14,13 -25,29 -25,35 0,6 11,22 25,35 13,14 29,25 35,25 6,0 22,-11 35,-25 z m -28,-170 c -12,-73 -179,-389 -286,-542 -43,-61 -57,-74 -91,-83 -41,-11 -80,-6 -80,9 0,5 11,33 24,62 14,30 41,123 61,206 24,101 45,165 62,190 46,67 124,151 151,162 46,18 96,29 131,30 33,1 34,0 28,-34 z M 3700,860 c 35,-30 68,-38 86,-20 6,6 9,-68 9,-199 V 432 l -75,-4 c -42,-3 -91,-12 -109,-21 -19,-9 -35,-17 -36,-17 -1,0 -5,87 -9,193 -3,105 -9,206 -12,224 l -6,32 32,-12 c 29,-11 33,-10 51,12 10,13 19,29 19,37 0,20 11,17 50,-16 z"
       id="path2"
       sodipodi:nodetypes="ccccccscccccccccccccscccccccccccccscccccssccsccccccsccccccccsccccccsccccsccccccsccccscscccccsscccscccscccccccccsccccsccccccccccscccccccccscscccccssccccccccccsccccsccccscccccccscccccccscccsscccccccccccccccscccccccccsccccccccccccccccsccssccccccccccccccsccccccsccccccccccccccccccccscccccccscccccscccccccsscccccccccscscccccccssccccscsscccccsccscscscsccssccccccccccscccscscsssccccccscscccccccscccsscsscccsccccsccccccccccccscscscccsccccccscssscsssssccsccccccscccccccccscccccccsccccccssccccccccccccccscccccccccccscsccscscccccccccccccccscccscsscsscccccccccccccccscccccscccccccsccsccscccsccccsccccccccccccccccccccscsccssccccccccssscccsccccccccssccccccccccccccccccssscccscscscsccccscccccccsscccscccccsc" />
    <path
       d="M3849 4486 c-69 -15 -97 -32 -177 -112 -99 -99 -132 -193 -96 -270 26 -55 101 -131 142 -145 47 -16 237 -16 315 0 70 15 111 52 153 136 53 109 39 211 -44 320 -59 78 -154 101 -293 71z m84 -70 c99 -36 139 -87 163 -207 19 -101 14 -152 -20 -174 -25 -17 -188 -32 -231 -21 -35 9 -132 100 -156 148 -37 72 -21 127 63 208 64 63 104 73 181 46z"
       id="path4" />
    <path
       d="M4837 4506 c-123 -33 -210 -150 -193 -259 14 -86 86 -182 170 -224 73 -37 154 -63 196 -63 72 0 183 55 217 107 24 37 22 131 -6 221 -17 57 -29 77 -69 115 -95 88 -218 129 -315 103z m178 -75 c88 -40 139 -121 140 -221 0 -57 -4 -72 -33 -117 -40 -62 -76 -78 -166 -71 -77 7 -130 33 -200 102 -46 45 -56 60 -56 89 0 50 54 150 107 197 43 37 50 40 107 40 38 0 76 -7 101 -19z"
       id="path6" />
    <path
       d="m 2791,1384 c 0.7186,-13.9282 9.3479,-42.018 10.1133,-24.9121 6.9969,-9.5874 -14.1836,83.0568 -13.4317,60.8203 -10.2697,17.3869 2.0747,-24.1432 3.3184,-35.9082 z"
       id="path8"
       sodipodi:nodetypes="cccc" />
    <path
       d="M 2796.7188,1359.4687 C 2796.7188,1345.4687 2861,963 2865,952 c 14,-38 26,-197 20,-267 -7,-77 -9,-81 -49,-120 -23,-22 -59,-46 -81,-52 -48,-14 -353,-43 -448,-43 h -68 l -15,-36 c -18,-43 -30,-160 -20,-198 11,-44 25,-29 14,16 -14,64 -1,134 32,172 l 28,31 194,6 c 204,6 323,25 368,58 14,10 34,33 45,52 18,31 20,52 20,217 0,137 3,182 12,182 7,0 15,11 19,25 8,31 11,31 35,1 26,-33 54,-38 84,-14 20,16 29,17 40,8 8,-6 24,-9 36,-5 17,6 20,4 16,-12 -3,-10 -8,-40 -11,-68 -5,-45 -4,-44 9,15 8,36 19,73 25,82 15,26 12,30 -9,18 -30,-16 -41,-13 -72,21 -24,26 -29,28 -29,12 0,-11 -10,-30 -21,-42 -21,-22 -22,-22 -40,-4 -10,10 -25,36 -33,58 -11,30 -15,34 -15,17 -1,-35 -29,-82 -50,-82 -27,0 -39,38 -67,204 -14,82 -30.0469,157.625 -33.0469,160.625 -2,2 -4.2343,-3.1563 -4.2343,-5.1563 z"
       id="path10"
       sodipodi:nodetypes="sccccscccccccccssccsccccccccscsccscss" />
    <path
       d="m 3122,815 c 0,-16 0.125,-21.53125 3.125,-11.53125 2,9 13.7187,79.95312 11.7187,86.95312 C 3133.8437,896.42187 3122,832 3122,815 Z"
       id="path12"
       sodipodi:nodetypes="sccs" />
    <path
       d="m 3112,745 c -3.9694,-30.27675 -15.5436,-109.2368 -0.7969,-103.75 9.7344,-27.09375 18.5,190.60937 16.5,197.60937 -3,6 -13.4022,-76.30914 -15.7031,-93.85937 z"
       id="path14"
       sodipodi:nodetypes="sccs" />
    <path
       d="m 3102,591 -2,-83 39,-39 39,-39 h 86 c 118,0 159,-24 187,-109 6,-18 8,-6 6,41 -2,49 -8,72 -22,88 -19,21 -25,22 -136,15 -162,-10 -172.7266,-1.46094 -183.7266,132.53906 -3.427,27.77344 3.8223,60 -4.539,86.36719 C 3096.9021,654.45201 3104.8333,621.1875 3102,591 Z"
       id="path16"
       sodipodi:nodetypes="ccccsccccccc" />
    <path
       d="m 2291,294 c -27,-23 -83.1907,-84.29007 -73.1907,-84.29007 1,0 48.1907,32.33512 72.1907,65.29007 49,50 49,60 1,19 z"
       id="path18"
       sodipodi:nodetypes="cscc" />
    <path
       d="M2740 299 c-47 -10 -105 -19 -130 -19 -43 -2 -44 -2 -15 -11 17 -5 116 -8 221 -7 l191 3 87 -58 c87 -58 87 -58 144 -51 65 7 72 3 107 -69 26 -53 40 -56 65 -15 28 46 25 56 -6 19 -14 -17 -30 -31 -34 -31 -5 0 -6 31 -3 68 5 56 3 71 -11 85 -25 24 -51 21 -112 -14 -30 -17 -59 -27 -66 -23 -7 4 -42 28 -78 54 -51 37 -84 52 -149 69 -99 25 -100 25 -211 0z"
       id="path20" />
    <path
       d="m 2504,299 c -1669.33333,3087.3333 -834.6667,1543.6667 0,0 z"
       id="path22"
       sodipodi:nodetypes="cc" />
    <path
       d="m 2557,284 c -1704.66667,3097.3333 -852.3333,1548.6667 0,0 z"
       id="path24"
       sodipodi:nodetypes="cc" />
    <path
       d="M3855 210 c3 -14 9 -61 12 -105 l6 -81 55 58 c30 32 63 60 73 63 29 9 55 -11 99 -75 22 -32 45 -62 51 -65 46 -29 -17 102 -73 149 -56 49 -88 54 -142 22 -44 -26 -66 -22 -66 14 0 8 -5 22 -11 30 -8 12 -9 9 -4 -10z"
       id="path26" />
    <path
       d="M3558 200 c-35 -10 -78 -40 -58 -40 8 0 42 7 75 15 103 25 116 22 171 -37 27 -29 61 -69 76 -88 l27 -35 -16 48 c-37 114 -156 173 -275 137z"
       id="path28" />
    <path
       d="m 3470,155 c -2313.3333,3183.3333 -1156.6667,1591.6667 0,0 z"
       id="path30"
       sodipodi:nodetypes="cc" />
    <path
       d="m 4632,70 c 0,-19 2,-27 5,-17 21.6248,69.78334 -26.4339,152.75654 -5,17 z"
       id="path32"
       sodipodi:nodetypes="ccc" />
  </g>
</svg>
